**ABCDEFGHIJKLMNOPQRSTUVWXYZabcdefghijklmnopqrstuvwxyz**************************
**PARASOLID !"#$%&'()*+,-./:;<=>?@[\]^_`{|}~0123456789**************************
**PART1;
MC=AMD64;
MC_MODEL=Intel64 Family 6 Model 61 Stepping 4, GenuineIntel;
MC_ID=unknown;
OS=Windows_NT;
OS_RELEASE=unknown;
FRU=Parasolid Version 30.0, build 226,  7-26-2017;
APPL=SOLIDWORKS 2018-2017284;
SITE=;
USER=unknown;
FORMAT=text;
GUISE=transmit;
KEY=acopladormotor;
FILE=acopladormotor.x_t;
DATE=Thu Aug  2 22:36:10 2018;
**PART2;
SCH=SCH_3000226_30000;
USFLD_SIZE=0;
**PART3;
**END_OF_HEADER*****************************************************************
T51 : TRANSMIT FILE created by modeller version 300022623 SCH_3000226_30000_1300
6205 0 12 33 CCCCCCI4 mesh1006 0 I8 polyline1008 0 CCCCCCCDI5 owner1040 0 CCCCCC
I13 boundary_mesh1006 0 I17 boundary_polyline1008 0 CCCA16 index_map_offset0 0 1
 dA9 index_map82 0 A17 node_id_index_map82 0 A20 schema_embedding_map82 0 A5 chi
ld12 0 A14 lowest_node_id0 0 1 dZ1 462 0 2 0 0 0 0 0 0 1e3 1e-8 0 3 0 1 0 1 1 4
 5 6 7 0 0 8 9 10 0 0 0 0 0 0 70 11 CI9 list_type0 0 1 uI10 notransmit0 0 1 lCCC
DCCDI12 finger_index0 0 1 dI12 finger_block1012 0 CZ2 0 4 T1 0 0 2 20 1 11 11 13
 255 4 29 0 1 0 12 0 0 13 0 51 255 5 28 0 14 15 0 0 -0 0 .007 0 0 -1 .015 -1 0 0
 31 255 6 195 0 16 17 0 0 -.011 0 .007 0 0 1 1 0 0 .0015 29 255 7 322 0 10 18 0
 -.00138901943830891 .001575 0 19 8 CCCCCCCA5 owner12 0 Z8 7 0 1 13 0 19 V0 16 2
55 9 4 0 ?20 0 21 22 0 0 1 18 255 10 320 0 23 0 24 7 ?1 17 255 23 0 25 26 27 10
 28 29 0 30 -18 24 305 0 31 10 32 18 ?1 17 31 0 25 27 26 24 33 34 0 35 +18 32 34
6 0 27 24 36 37 ?1 29 18 307 0 24 38 7 .00138901943830891 .001575 .01 29 38 374
 0 36 37 18 -.00138901943830891 .001575 .01 18 36 347 0 26 32 0 38 ?1 29 37 377
 0 32 0 38 .00138901943830891 .001575 0 17 26 0 25 31 23 36 30 39 0 40 +15 255 2
5 351 0 31 41 0 17 30 0 42 43 40 10 26 39 0 44 -16 39 337 0 ?26 45 46 47 0 0 1 1
7 40 0 42 30 35 36 48 49 0 33 +15 42 355 0 40 50 0 17 35 0 42 40 43 24 27 46 0 4
8 +17 48 0 51 33 33 24 40 49 0 0 -16 49 341 0 ?40 29 34 52 0 0 1 17 33 0 51 48 4
8 36 31 34 0 0 -15 51 313 0 33 53 54 16 34 338 0 ?31 49 0 55 0 0 1 31 55 371 0 3
4 56 52 0 +0 0 .01 0 0 1 1 0 0 .0021 30 255 56 372 0 57 58 55 0 +-.0013890194383
0891 .001575 0 -1 0 0 30 52 370 0 49 55 47 0 +-.00138901943830891 .001575 .01 -1
 0 0 30 47 369 0 39 52 59 0 +-.00138901943830891 .001575 0 0 0 1 30 59 368 0 46
 47 60 0 +.00138901943830891 .001575 0 0 0 1 16 46 333 0 ?35 39 57 59 0 0 1 31 6
0 281 0 61 59 62 0 +.011 0 .007 0 0 1 1 0 0 .0025 16 61 215 0 ?63 64 65 60 0 0 1
 31 62 280 0 65 60 66 0 +.011 0 .01 0 0 1 1 0 0 .0025 16 65 211 0 ?67 61 68 62 0
 0 1 31 66 279 0 68 62 69 0 +-.011 -1347111479062088e-33 .007 0 0 1 1 0 0 .0025
 16 68 243 0 ?70 65 45 66 0 0 1 31 69 278 0 45 66 71 0 +-.011 -1347111479062088e
-33 .01 0 0 1 1 0 0 .0025 16 45 239 0 ?72 68 39 69 0 0 1 31 71 167 0 73 69 74 0
 +-.011 -1347111479062088e-33 0 0 0 1 1 0 0 .0015 16 73 119 0 ?75 76 77 71 0 0 1
 31 74 164 0 77 71 78 0 +.011 0 0 0 0 1 1 0 0 .0015 16 77 137 0 ?79 73 16 74 0 0
 1 31 78 82 0 80 74 81 0 +0 0 .01 0 0 1 1 0 0 .0175 16 80 57 0 ?82 21 76 78 0 0
 1 31 81 81 0 76 78 22 0 +0 0 .007 0 0 1 1 0 0 .0175 16 76 54 0 ?83 80 73 81 0 0
 1 31 22 5 0 9 81 84 0 +0 0 .007 0 0 1 1 0 0 .015 31 84 23 0 21 22 17 0 +0 0 0 0
 0 1 1 0 0 .015 16 21 18 0 ?85 9 80 84 0 0 1 31 17 189 0 64 84 6 0 --.011 -13471
11479062088e-33 .007 0 0 1 1 0 0 .0015 16 64 246 0 ?86 16 61 17 0 0 1 17 86 0 87
 86 86 0 88 64 0 0 +16 16 218 0 ?89 77 64 6 0 0 1 17 89 0 90 89 89 0 91 16 0 0 +
15 90 222 0 89 92 0 17 91 0 93 91 91 0 89 16 0 0 -15 93 194 0 91 12 0 14 255 12
 196 94 ?95 0 96 4 97 -0 0 95 0 19 81 255 1 94 450 98 12 99 0 0 100 101 14 95 19
0 100 ?14 12 102 4 103 -0 0 14 12 19 15 96 146 0 104 12 93 51 97 160 0 12 103 10
5 0 +.011 0 0 0 0 1 .0015 1 0 0 13 19 8 0 0 0 0 0 0 8 12 51 103 161 0 95 106 97
 0 +-.011 -1347111479062088e-33 0 0 0 1 .0015 1 0 0 50 255 105 80 0 53 97 107 0
 +0 0 .01 0 0 1 1 0 0 14 53 69 108 ?109 110 51 4 105 +0 0 109 110 19 50 107 79 0
 109 105 111 0 +0 0 .007 0 0 1 1 0 0 14 109 72 112 ?113 53 114 4 107 -0 0 113 53
 19 51 111 78 0 110 107 15 0 -0 0 .01 0 0 -1 .0175 -1 0 0 14 110 64 115 ?53 116
 117 4 111 -0 0 53 116 19 50 15 22 0 116 111 5 0 +0 0 0 0 0 1 1 0 0 14 116 16 11
8 ?110 14 119 4 15 -0 0 110 14 19 81 1 118 455 98 116 120 0 115 121 122 14 14 25
 121 ?116 95 123 4 5 -0 0 116 95 19 15 119 318 0 44 116 124 17 44 0 119 28 28 10
 43 57 0 0 +15 124 113 0 75 116 125 17 75 0 124 75 75 0 126 73 0 0 +15 125 107 0
 79 116 127 17 79 0 125 79 79 0 104 77 0 0 +15 127 17 0 128 116 0 17 128 0 127 1
28 128 0 85 21 0 0 -17 85 0 129 85 85 0 128 21 0 0 +15 129 26 0 85 14 0 17 104 0
 96 104 104 0 79 77 0 0 -17 126 0 102 126 126 0 75 73 0 0 -15 102 128 0 126 95 1
30 15 130 188 0 88 95 0 17 88 0 130 88 88 0 86 64 0 0 -17 28 0 119 44 44 32 23 2
9 0 0 +17 43 0 42 35 30 32 44 57 0 28 -16 57 334 0 ?44 46 29 56 0 0 1 16 29 330
 0 ?28 57 49 58 0 0 1 31 58 373 0 29 0 56 0 +0 0 0 0 0 1 1 0 0 .0021 81 1 121 45
6 98 14 131 0 118 132 133 15 123 24 0 134 14 129 17 134 0 123 134 134 0 20 9 0 0
 -17 20 0 114 20 20 0 134 9 0 0 +15 114 74 0 20 109 135 15 135 75 0 136 109 0 17
 136 0 135 136 136 0 83 76 0 0 -17 83 0 137 83 83 0 136 76 0 0 +15 137 68 0 83 1
10 0 80 255 1 98 138 139 9000 1 1 1 1 1 1 1 1 0 FFFFTFTFFFFFFF1 81 1 131 411 140
 14 0 121 141 120 142 81 1 132 457 98 113 143 0 121 144 145 82 255 1 133 6257379
28 14 113 247 132 ?146 109 147 4 148 +0 0 146 109 19 81 1 143 416 140 113 0 132
 149 150 151 81 1 144 458 98 146 150 0 132 152 153 82 1 145 1283195142 14 146 25
5 144 ?92 113 154 4 106 -0 0 92 113 19 81 1 150 417 140 146 0 144 143 155 156 81
 1 152 459 98 92 155 0 144 157 158 82 1 153 1280049414 14 92 219 152 ?159 146 16
0 4 161 +0 0 159 146 19 81 1 155 418 140 92 0 152 150 162 163 81 1 157 460 98 15
9 162 0 152 164 165 82 1 158 1284702470 14 159 227 157 ?41 92 166 4 167 -0 0 41
 92 19 81 1 162 419 140 159 0 157 155 168 169 81 1 164 461 98 41 168 0 157 170 1
71 82 1 165 1276051718 14 41 348 164 ?50 159 25 4 172 -0 0 50 159 19 81 1 168 42
0 140 41 0 164 162 173 174 81 1 170 462 98 50 173 0 164 0 175 82 1 171 129879271
1 14 50 352 170 ?0 41 42 4 176 -0 0 0 41 19 81 1 173 421 140 50 0 170 168 0 177
 82 1 175 1298661639 80 1 140 0 178 8001 0 0 0 0 3 5 0 0 0 FFFFTFTFFFFFFF2 83 25
5 3 177 .792156862745098 .819607843137255 .933333333333333 79 255 15 178 SDL/TYS
A_COLOUR50 176 365 0 50 0 172 0 +-.00138901943830891 .001575 0 0 1 0 0 0 1 51 17
2 364 0 41 176 161 0 +0 0 0 0 0 1 .0021 1 0 0 50 161 275 0 92 172 167 0 +.011 0
 .007 0 0 1 1 0 0 51 167 273 0 159 161 148 0 +.011 0 .007 0 0 1 .0025 1 0 0 50 1
48 272 0 113 167 106 0 +-.011 -1347111479062088e-33 .007 0 0 1 1 0 0 51 106 270
 0 146 148 103 0 +-.011 -1347111479062088e-33 .007 0 0 1 .0025 1 0 0 83 3 174 .7
92156862745098 .819607843137255 .933333333333333 83 3 169 .792156862745098 .8196
07843137255 .933333333333333 15 166 230 0 179 159 180 17 179 0 166 179 179 0 63
 61 0 0 -15 180 231 0 67 159 0 17 67 0 180 67 67 0 181 65 0 0 +17 181 0 54 181 1
81 0 67 65 0 0 -15 54 206 0 181 53 182 15 182 200 0 183 53 184 17 183 0 182 183
 183 0 72 45 0 0 -15 184 71 0 82 53 0 17 82 0 184 82 82 0 185 80 0 0 +17 185 0 1
17 185 185 0 82 80 0 0 -15 117 67 0 185 110 137 17 72 0 186 72 72 0 183 45 0 0 +
15 186 259 0 72 146 0 17 63 0 160 63 63 0 179 61 0 0 +15 160 221 0 63 92 90 83 3
 163 .792156862745098 .819607843137255 .933333333333333 83 3 156 .79215686274509
8 .819607843137255 .933333333333333 15 154 258 0 187 146 186 17 187 0 154 187 18
7 0 70 68 0 0 -17 70 0 147 70 70 0 187 68 0 0 +15 147 249 0 70 113 87 15 87 250
 0 86 113 0 81 1 149 415 140 109 0 112 188 143 189 83 3 151 .792156862745098 .81
9607843137255 .933333333333333 81 1 112 453 98 109 149 0 108 115 190 81 1 188 41
4 140 53 0 108 191 149 192 83 3 189 .792156862745098 .819607843137255 .933333333
333333 81 1 108 452 98 53 188 0 100 112 193 81 1 191 413 140 110 0 115 120 188 1
94 83 3 192 .792156862745098 .819607843137255 .933333333333333 81 1 115 454 98 1
10 191 0 112 118 195 81 1 120 412 140 116 0 118 131 191 196 83 3 194 .7921568627
45098 .819607843137255 .933333333333333 83 3 196 .792156862745098 .8196078431372
55 .933333333333333 82 1 195 1458045131 81 1 100 451 98 95 141 0 94 108 197 82 1
 193 1202520327 81 1 141 410 140 95 0 100 99 131 198 82 1 197 1282212102 81 1 99
 409 140 12 0 94 0 141 199 83 3 198 .792156862745098 .819607843137255 .933333333
333333 83 3 199 .792156862745098 .819607843137255 .933333333333333 82 1 190 1457
782987 83 3 142 .792156862745098 .819607843137255 .933333333333333 79 14 139 SWE
ntUnchanged82 1 122 1202913543 82 1 101 1283719430 17 27 0 25 23 31 32 35 46 0 4
3 -19 13 30 0 1 0 8 4 S0 74 4 CI16 index_map_offset0 0 1 dCCZ20 11 2 0 0 170 173
 0 0 0 0 0 0 0 0 0 0 0 0 0 0 0 0 0 0 1 0 
