**ABCDEFGHIJKLMNOPQRSTUVWXYZabcdefghijklmnopqrstuvwxyz**************************
**PARASOLID !"#$%&'()*+,-./:;<=>?@[\]^_`{|}~0123456789**************************
**PART1;
MC=AMD64;
MC_MODEL=Intel64 Family 6 Model 61 Stepping 4, GenuineIntel;
MC_ID=unknown;
OS=Windows_NT;
OS_RELEASE=unknown;
FRU=Parasolid Version 30.0, build 226,  7-26-2017;
APPL=SOLIDWORKS 2018-2017284;
SITE=;
USER=unknown;
FORMAT=text;
GUISE=transmit;
KEY=Bucha;
FILE=Bucha.x_t;
DATE=Thu Aug  2 22:37:04 2018;
**PART2;
SCH=SCH_3000226_30000;
USFLD_SIZE=0;
**PART3;
**END_OF_HEADER*****************************************************************
T51 : TRANSMIT FILE created by modeller version 300022623 SCH_3000226_30000_1300
6205 0 12 33 CCCCCCI4 mesh1006 0 I8 polyline1008 0 CCCCCCCDI5 owner1040 0 CCCCCC
I13 boundary_mesh1006 0 I17 boundary_polyline1008 0 CCCA16 index_map_offset0 0 1
 dA9 index_map82 0 A17 node_id_index_map82 0 A20 schema_embedding_map82 0 A5 chi
ld12 0 A14 lowest_node_id0 0 1 dZ1 1554 0 2 0 0 0 0 0 0 1e3 1e-8 0 3 0 1 0 1 1 4
 5 6 7 0 0 8 9 10 0 0 0 0 0 0 70 11 CI9 list_type0 0 1 uI10 notransmit0 0 1 lCCC
DCCDI12 finger_index0 0 1 dI12 finger_block1012 0 CZ2 0 4 T1 0 0 2 20 1 11 11 13
 255 4 29 0 1 0 12 0 0 13 0 54 255 5 1320 0 12 14 0 15 +0 .021 .0055 0 0 1 .0032
 5e-4 1 0 0 38 12 CCCCCCCCCCCA17 intersection_data204 0 Z6 1319 0 9 16 0 0 +17 5
 18 19 20 21 29 255 7 1300 0 10 22 0 -.001351881340843972 .01809958333333335 .00
5 19 8 CCCCCCCA5 owner12 0 Z8 7 0 1 13 0 23 V0 16 255 9 1316 0 ?24 0 25 6 0 0 1
 18 255 10 1298 0 24 0 26 7 ?1 17 255 24 0 27 28 29 10 30 9 0 31 +18 26 1295 0 3
0 10 32 22 ?1 17 30 0 33 31 31 26 24 9 0 34 -18 32 1201 0 35 26 36 37 ?1 29 22 1
297 0 26 37 7 .001351881340843972 .01809958333333335 .005 29 37 1203 0 32 38 22
 .0163506396350021 -.0078790280825936 .005 29 38 1200 0 36 39 37 .01499875829415
808 -.01022055525073976 .005 18 36 1198 0 40 32 41 38 ?1 29 39 1107 0 41 42 38 -
.01499875829415814 -.01022055525073966 .005 18 41 1105 0 43 36 44 39 ?1 29 42 11
04 0 44 45 39 -.01635063963500215 -.00787902808259349 .005 18 44 1103 0 28 41 46
 42 ?1 29 45 367 0 46 47 42 -.00346410161513776 .021 0 18 46 365 0 48 44 49 45 ?
1 29 47 339 0 49 50 45 .01472243186433546 -.0105 0 18 49 337 0 51 46 52 47 ?1 29
 50 311 0 52 53 47 -.0199185842870421 -.0135 0 18 52 309 0 54 49 55 50 ?1 29 53
 762 0 56 57 50 -.01645448267190435 -.0135 0 18 56 628 0 58 59 60 53 ?1 29 57 76
3 0 60 61 53 -.01472243186433546 -.0105 0 18 60 630 0 62 56 63 57 ?1 29 61 764 0
 63 64 57 -.01645448267190435 -.0075 0 18 63 632 0 65 60 66 61 ?1 29 64 765 0 66
 67 61 -.0199185842870421 -.0075 0 18 66 634 0 68 63 69 64 ?1 29 67 766 0 69 70
 64 -.02165063509461095 -.0105 0 18 69 636 0 71 66 0 67 ?1 29 70 768 0 72 73 67
 -.01645448267190435 -.0135 .0027 18 72 625 0 74 75 76 70 ?1 29 73 769 0 76 77 7
0 -.01472243186433546 -.0105 .0027 18 76 627 0 78 72 79 73 ?1 29 77 770 0 79 80
 73 -.01645448267190435 -.0075 .0027 18 79 629 0 81 76 82 77 ?1 29 80 771 0 82 8
3 77 -.0199185842870421 -.0075 .0027 18 82 631 0 84 79 85 80 ?1 29 83 772 0 85 8
6 80 -.02165063509461095 -.0105 .0027 18 85 633 0 87 82 59 83 ?1 29 86 773 0 59
 88 83 -.0199185842870421 -.0135 .0027 18 59 635 0 89 85 56 86 ?1 29 88 774 0 90
 91 86 .01645448267190435 -.0135 0 18 90 533 0 92 93 94 88 ?1 29 91 775 0 94 95
 88 .0199185842870421 -.0135 0 18 94 535 0 96 90 97 91 ?1 29 95 776 0 97 98 91 .
02165063509461095 -.0105 0 18 97 537 0 99 94 100 95 ?1 29 98 777 0 100 101 95 .0
199185842870421 -.0075 0 18 100 539 0 102 97 75 98 ?1 29 101 778 0 75 103 98 .01
645448267190435 -.0075 0 18 75 541 0 104 100 72 101 ?1 29 103 780 0 105 106 101
 .01645448267190435 -.0135 .0027 18 105 530 0 107 108 109 103 ?1 29 106 781 0 10
9 110 103 .0199185842870421 -.0135 .0027 18 109 532 0 111 105 112 106 ?1 29 110
 782 0 112 113 106 .02165063509461095 -.0105 .0027 18 112 534 0 114 109 115 110
 ?1 29 113 783 0 115 116 110 .0199185842870421 -.0075 .0027 18 115 536 0 117 112
 118 113 ?1 29 116 784 0 118 119 113 .01645448267190435 -.0075 .0027 18 118 538
 0 120 115 93 116 ?1 29 119 785 0 93 121 116 .01472243186433546 -.0105 .0027 18
 93 540 0 122 118 90 119 ?1 29 121 786 0 123 124 119 -.00173205080756888 .018 0
 18 123 438 0 125 126 127 121 ?1 29 124 787 0 127 128 121 .00173205080756888 .01
8 0 18 127 440 0 129 123 130 124 ?1 29 128 788 0 130 131 124 .00346410161513776
 .021 0 18 130 442 0 132 127 133 128 ?1 29 131 789 0 133 134 128 .00173205080756
888 .024 0 18 133 444 0 135 130 108 131 ?1 29 134 790 0 108 136 131 -.0017320508
0756888 .024 0 18 108 446 0 137 133 105 134 ?1 29 136 792 0 55 138 134 -.0017320
5080756888 .018 .0027 18 55 435 0 139 52 140 136 ?1 29 138 793 0 140 141 136 .00
173205080756888 .018 .0027 18 140 437 0 142 55 143 138 ?1 29 141 794 0 143 144 1
38 .00346410161513776 .021 .0027 18 143 439 0 145 140 146 141 ?1 29 144 795 0 14
6 147 141 .00173205080756888 .024 .0027 18 146 441 0 148 143 149 144 ?1 29 147 7
96 0 149 150 144 -.00173205080756888 .024 .0027 18 149 443 0 151 146 126 147 ?1
 29 150 797 0 126 0 147 -.00346410161513776 .021 .0027 18 126 445 0 152 149 123
 150 ?1 17 152 0 153 154 48 126 155 156 0 157 -15 255 153 458 0 48 158 0 17 154
 0 153 125 152 55 159 160 0 161 -17 48 0 153 152 125 46 162 163 0 155 +17 155 0
 164 165 157 46 152 156 0 166 +16 156 413 0 ?155 167 168 169 0 0 1 17 157 0 164
 155 151 126 170 171 0 159 -15 164 478 0 165 172 0 17 151 0 164 157 165 149 137
 167 0 173 -17 170 0 174 175 159 149 157 171 0 0 +16 171 430 0 ?170 176 160 177
 0 0 1 17 159 0 174 170 161 126 154 160 0 0 +15 174 449 0 159 178 179 17 161 0 1
74 159 180 55 181 168 0 0 +16 160 410 0 ?159 171 182 183 0 0 1 16 182 406 0 ?184
 160 185 186 0 0 1 30 255 183 761 0 160 187 177 0 +-.00173205080756888 .018 .002
7 -.5 .866025403784439 0 31 255 187 928 0 188 189 183 0 +0 .021 .0075 0 0 1 1 0
 0 .0027 30 177 760 0 171 183 190 0 +-.00346410161513776 .021 .0027 .5 .86602540
3784439 0 30 190 759 0 176 177 191 0 +-.00173205080756888 .024 .0027 1 -20030861
3164954e-29 0 16 176 426 0 ?175 192 171 190 0 0 1 30 191 758 0 192 190 193 0 +.0
0173205080756888 .024 .0027 .5 -.866025403784438 0 16 192 422 0 ?194 195 176 191
 0 0 1 30 193 757 0 195 191 196 0 +.00346410161513776 .021 .0027 -.5 -.866025403
784439 0 16 195 418 0 ?180 168 192 193 0 0 1 30 196 756 0 168 193 197 0 +.001732
05080756888 .018 .0027 -1 0 0 16 168 414 0 ?161 156 195 196 0 0 1 30 197 755 0 1
63 196 198 0 +-.00173205080756888 .018 0 -.5 .866025403784439 0 16 163 391 0 ?48
 199 200 197 0 0 1 30 198 754 0 199 197 201 0 +-.00346410161513776 .021 0 .5 .86
6025403784439 0 16 199 394 0 ?165 202 163 198 0 0 1 30 201 753 0 202 198 203 0 +
-.00173205080756888 .024 0 1 -200308613164954e-29 0 16 202 397 0 ?204 205 199 20
1 0 0 1 30 203 752 0 205 201 206 0 +.00173205080756888 .024 0 .5 -.8660254037844
38 0 16 205 400 0 ?207 185 202 203 0 0 1 30 206 751 0 185 203 186 0 +.0034641016
1513776 .021 0 -.5 -.866025403784439 0 16 185 403 0 ?208 182 205 206 0 0 1 30 18
6 750 0 182 206 209 0 +.00173205080756888 .018 0 -1 0 0 30 209 749 0 210 186 211
 0 +-.00173205080756888 .018 .0027 0 0 -1 16 210 417 0 ?125 212 213 209 0 0 1 30
 211 748 0 213 209 214 0 +.00173205080756888 .018 .0027 0 0 -1 16 213 421 0 ?129
 210 215 211 0 0 1 30 214 747 0 215 211 216 0 +.00346410161513776 .021 .0027 0 0
 -1 16 215 425 0 ?132 213 217 214 0 0 1 30 216 746 0 217 214 218 0 +.00173205080
756888 .024 .0027 0 0 -1 16 217 429 0 ?135 215 167 216 0 0 1 30 218 745 0 167 21
6 169 0 +-.00173205080756888 .024 .0027 0 0 -1 16 167 433 0 ?137 217 156 218 0 0
 1 30 169 744 0 156 218 219 0 +-.00346410161513776 .021 .0027 0 0 -1 30 219 743
 0 220 169 221 0 +.01472243186433546 -.0105 .0027 -.5 .866025403784438 0 16 220
 505 0 ?222 223 224 219 0 0 1 30 221 742 0 223 219 225 0 +.01645448267190435 -.0
075 .0027 .5 .866025403784439 0 16 223 525 0 ?226 227 220 221 0 0 1 30 225 741 0
 227 221 228 0 +.0199185842870421 -.0075 .0027 1 0 0 16 227 521 0 ?229 230 223 2
25 0 0 1 30 228 740 0 230 225 231 0 +.02165063509461095 -.0105 .0027 .5 -.866025
403784439 0 16 230 517 0 ?232 233 227 228 0 0 1 30 231 739 0 233 228 234 0 +.019
9185842870421 -.0135 .0027 -.5 -.866025403784439 0 16 233 513 0 ?235 236 230 231
 0 0 1 30 234 738 0 236 231 237 0 +.01645448267190435 -.0135 .0027 -1 0 0 16 236
 509 0 ?238 239 233 234 0 0 1 30 237 737 0 240 234 241 0 +.01472243186433546 -.0
105 0 -.5 .866025403784438 0 16 240 487 0 ?51 242 243 237 0 0 1 30 241 736 0 242
 237 244 0 +.01645448267190435 -.0075 0 .5 .866025403784439 0 16 242 490 0 ?245
 246 240 241 0 0 1 30 244 735 0 246 241 247 0 +.0199185842870421 -.0075 0 1 0 0
 16 246 493 0 ?248 249 242 244 0 0 1 30 247 734 0 249 244 250 0 +.02165063509461
095 -.0105 0 .5 -.866025403784439 0 16 249 496 0 ?251 252 246 247 0 0 1 30 250 7
33 0 252 247 253 0 +.0199185842870421 -.0135 0 -.5 -.866025403784439 0 16 252 49
9 0 ?254 224 249 250 0 0 1 30 253 732 0 224 250 255 0 +.01645448267190435 -.0135
 0 -1 0 0 16 224 502 0 ?256 220 252 253 0 0 1 30 255 731 0 200 253 257 0 +.01645
448267190435 -.0135 .0027 0 0 -1 16 200 512 0 ?92 163 258 255 0 0 1 30 257 730 0
 258 255 259 0 +.0199185842870421 -.0135 .0027 0 0 -1 16 258 516 0 ?96 200 260 2
57 0 0 1 30 259 729 0 260 257 261 0 +.02165063509461095 -.0105 .0027 0 0 -1 16 2
60 520 0 ?99 258 262 259 0 0 1 30 261 728 0 262 259 263 0 +.0199185842870421 -.0
075 .0027 0 0 -1 16 262 524 0 ?102 260 264 261 0 0 1 30 263 727 0 264 261 265 0
 +.01645448267190435 -.0075 .0027 0 0 -1 16 264 528 0 ?104 262 239 263 0 0 1 30
 265 726 0 239 263 266 0 +.01472243186433546 -.0105 .0027 0 0 -1 16 239 508 0 ?2
67 264 236 265 0 0 1 30 266 725 0 268 265 269 0 +-.01645448267190435 -.0135 .002
7 -1 500771532912387e-30 0 16 268 600 0 ?270 271 272 266 0 0 1 30 269 724 0 271
 266 273 0 +-.0199185842870421 -.0135 .0027 -.5 .866025403784439 0 16 271 620 0
 ?274 275 268 269 0 0 1 30 273 723 0 275 269 276 0 +-.02165063509461095 -.0105 .
0027 .5 .866025403784439 0 16 275 616 0 ?277 278 271 273 0 0 1 30 276 722 0 278
 273 279 0 +-.0199185842870421 -.0075 .0027 1 -250385766456193e-30 0 16 278 612
 0 ?280 281 275 276 0 0 1 30 279 721 0 281 276 282 0 +-.01645448267190435 -.0075
 .0027 .5 -.866025403784439 0 16 281 608 0 ?283 284 278 279 0 0 1 30 282 720 0 2
84 279 285 0 +-.01472243186433546 -.0105 .0027 -.5 -.866025403784439 0 16 284 60
4 0 ?286 287 281 282 0 0 1 30 285 719 0 288 282 289 0 +-.01645448267190435 -.013
5 0 -1 500771532912387e-30 0 16 288 581 0 ?54 290 188 285 0 0 1 30 289 718 0 290
 285 291 0 +-.0199185842870421 -.0135 0 -.5 .866025403784439 0 16 290 584 0 ?292
 293 288 289 0 0 1 30 291 717 0 293 289 294 0 +-.02165063509461095 -.0105 0 .5 .
866025403784439 0 16 293 587 0 ?295 296 290 291 0 0 1 30 294 716 0 296 291 297 0
 +-.0199185842870421 -.0075 0 1 -250385766456193e-30 0 16 296 590 0 ?298 299 293
 294 0 0 1 30 297 715 0 299 294 300 0 +-.01645448267190435 -.0075 0 .5 -.8660254
03784439 0 16 299 593 0 ?301 272 296 297 0 0 1 30 300 714 0 272 297 302 0 +-.014
72243186433546 -.0105 0 -.5 -.866025403784439 0 16 272 596 0 ?303 268 299 300 0
 0 1 30 302 713 0 243 300 304 0 +-.01645448267190435 -.0135 .0027 0 0 -1 16 243
 607 0 ?58 240 305 302 0 0 1 30 304 712 0 305 302 306 0 +-.01472243186433546 -.0
105 .0027 0 0 -1 16 305 611 0 ?62 243 307 304 0 0 1 30 306 711 0 307 304 308 0 +
-.01645448267190435 -.0075 .0027 0 0 -1 16 307 615 0 ?65 305 309 306 0 0 1 30 30
8 710 0 309 306 310 0 +-.0199185842870421 -.0075 .0027 0 0 -1 16 309 619 0 ?68 3
07 311 308 0 0 1 30 310 709 0 311 308 312 0 +-.02165063509461095 -.0105 .0027 0
 0 -1 16 311 623 0 ?71 309 287 310 0 0 1 30 312 708 0 287 310 313 0 +-.019918584
2870421 -.0135 .0027 0 0 -1 16 287 603 0 ?314 311 284 312 0 0 1 31 313 142 0 315
 312 316 0 +0 0 .003 0 0 1 1 0 0 .01815 16 315 109 0 ?317 318 319 313 0 0 1 31 3
16 141 0 319 313 320 0 +0 0 .005 0 0 1 1 0 0 .01815 16 319 1106 0 ?321 315 322 3
16 323 322 1 31 320 71 0 324 316 325 0 +0 0 0 0 0 1 1 0 0 .015625 16 324 49 0 ?3
26 327 318 320 0 0 1 31 325 5 0 328 320 329 0 +0 0 .005 0 0 1 1 0 0 .025 16 328
 4 0 ?330 331 327 325 0 0 1 31 329 23 0 327 325 332 0 +0 0 0 0 0 1 1 0 0 .025 16
 327 18 0 ?333 328 324 329 0 0 1 31 332 98 0 318 329 334 0 +0 0 .003 0 0 1 1 0 0
 .015625 16 318 112 0 ?335 324 315 332 0 0 1 31 334 291 0 212 332 336 0 -0 .021
 .0027 0 0 -1 -1 0 0 .002 16 212 434 0 ?337 338 210 334 0 0 1 31 336 297 0 338 3
34 339 0 --.01818653347947325 -.0105 .0027 0 0 -1 -1 0 0 .002 16 338 624 0 ?340
 341 212 336 0 0 1 31 339 303 0 341 336 342 0 -.0181865334794732 -.0105 .0027 0
 0 1 1 0 0 .002 16 341 486 0 ?343 323 338 339 0 0 1 31 342 1099 0 331 339 344 0
 +-.01818653347947325 -.0105 .0055 0 0 1 1 0 0 .0027 16 331 1096 0 ?345 346 328
 342 0 0 1 31 344 1110 0 346 342 347 0 --.01818653347947325 -.0105 .005 0 0 1 1
 0 0 .0032 16 346 1108 0 ?348 349 331 344 0 0 1 38 347 1126 0 349 344 350 0 +17
 351 352 353 354 355 16 349 1123 0 ?43 356 346 347 0 0 1 31 350 1194 0 356 347 3
57 0 +.0181865334794732 -.0105 .0055 0 0 1 1 0 0 .0027 51 255 17 137 0 358 359 3
60 361 +0 0 .003 0 0 1 .01815 1 0 0 54 351 1127 0 362 363 14 364 +-.018186533479
47325 -.0105 .0055 0 0 1 .0032 5e-4 1 0 0 40 255 4 352 0 1 4 .000399785364077335
 .395425410082975 ??-.01635063963500215 -.00787902808259349 .005 -.0158916974157
154 -.00876792183173092 .00511992251025607 -.01537765753202395 -.009641065751657
68 .0050745911545859 -.0149729089640805 -.01025838667400278 .00500051530364916 4
1 3 CI8 term_use0 0 1 cCZ1 353 L?-.01635063963500215 -.00787902808259349 .005 41
 1 354 L?-.0149729089640805 -.01025838667400278 .00500051530364916 204 2 17 INTE
RSECTION_DATA17 Intersection data7 uv_type0 0 1 u6 values0 1 1 fT16 355 4 3.5906
38565534725 .002 .959759693710429 -1.57079632679491 3.64576289767061 .0021199225
1025607 .646548244978801 -2.278041047128985 3.701595011515035 .0020745911545859
 .2967628479874285 -2.124053174794225 3.742268770565395 .00200051530364916 .0750
428718175018 -1.5253918254273 14 255 362 1125 365 ?366 367 368 4 351 -0 0 366 36
7 23 51 363 28 0 369 370 351 0 -0 0 .005 0 0 -1 .025 -1 0 0 54 14 1223 0 367 351
 5 371 +.0181865334794732 -.0105 .0055 0 0 1 .0032 5e-4 1 0 0 141 255 364 347 36
4 364 351 14 367 1221 372 ?362 12 373 4 14 -0 0 362 12 23 141 371 374 371 371 14
 38 374 1222 0 375 357 376 0 +17 14 377 378 379 380 16 375 1219 0 ?35 381 382 37
4 0 0 1 31 357 1206 0 382 350 374 0 -.0181865334794732 -.0105 .005 0 0 1 1 0 0 .
0032 31 376 1291 0 381 374 16 0 +0 .021 .0055 0 0 1 1 0 0 .0027 40 4 377 0 1 4 .
00039978536407733 .395425410082968 ??.01499875829415808 -.01022055525073976 .005
 .0155390917525329 -.00937865275539954 .00511992251025607 .0160382366265037 -.00
849690919760095 .0050745911545859 .01637047794357045 -.00783772619444401 .005000
51530364916 41 1 378 L?.01499875829415808 -.01022055525073976 .005 41 1 379 L?.0
1637047794357045 -.00783772619444401 .00500051530364916 204 16 380 4 5.685033667
92793 .002 3.05415479610363 -1.5707963267949 5.74015800006381 .00211992251025607
 2.740943347372 -2.278041047128975 5.79599011390824 .002074591154585895 2.391157
95038063 -2.124053174794215 5.83666387295859 .00200051530364916 2.16943797421071
 -1.52539182542732 16 381 1288 0 ?383 25 375 376 0 0 1 31 16 1303 0 25 376 6 0 -
0 .021 .005 0 0 1 1 0 0 .0032 16 25 1301 0 ?34 9 381 16 0 0 1 17 34 0 384 385 38
6 26 31 25 0 29 +15 384 103 0 386 366 0 17 385 0 384 387 34 32 29 322 0 0 -17 38
6 0 384 34 348 10 28 323 0 0 -17 31 0 33 30 30 10 34 25 0 386 -17 29 0 27 24 35
 26 385 322 0 0 +15 27 126 0 321 358 0 17 35 0 27 29 321 32 40 375 0 388 +16 322
 1202 0 ?29 319 323 316 319 323 1 16 323 1299 0 ?28 322 341 316 322 319 1 17 28
 0 27 43 24 44 386 323 0 389 +17 43 0 27 321 28 41 389 349 0 390 +17 389 0 391 3
90 390 44 43 349 0 348 -15 391 1124 0 389 362 0 17 390 0 391 389 389 41 348 346
 0 392 -17 348 0 384 386 392 44 390 346 0 0 +17 392 0 384 348 387 41 321 319 0 0
 -17 387 0 384 392 385 36 388 382 0 321 +17 321 0 27 35 43 36 392 319 0 0 +17 38
8 0 393 40 40 32 387 382 0 385 -16 382 1204 0 ?387 375 356 357 0 0 1 16 356 1191
 0 ?394 382 349 350 0 0 1 17 394 0 395 394 394 0 396 356 0 0 +15 395 1192 0 394
 397 398 17 396 0 373 396 396 0 394 356 0 0 -15 373 1193 0 396 367 393 15 393 12
20 0 40 367 0 17 40 0 393 388 388 36 35 375 0 387 -14 397 1013 399 ?0 400 395 4
 401 -0 0 0 400 23 15 398 1016 0 402 397 0 17 402 0 398 402 402 0 403 404 0 0 -1
7 403 0 405 403 403 0 402 404 0 0 +16 404 993 0 ?403 406 407 408 0 0 1 16 406 95
1 0 ?409 410 404 411 0 0 1 16 407 1002 0 ?412 404 0 413 0 0 1 31 408 1030 0 404
 413 411 0 +.0181865334794732 -.0105 .0075 0 0 1 1 0 0 .0027 31 413 1032 0 407 0
 408 0 +.0181865334794732 -.0105 .0075 0 0 1 1 0 0 .002 31 411 981 0 406 408 414
 0 +-.01818653347947325 -.0105 .0075 0 0 1 1 0 0 .002 31 414 979 0 410 411 189 0
 +-.01818653347947325 -.0105 .0075 0 0 1 1 0 0 .0027 16 410 942 0 ?415 416 406 4
14 0 0 1 31 189 930 0 416 414 187 0 +0 .021 .0075 0 0 1 1 0 0 .002 16 416 900 0
 ?417 188 410 189 0 0 1 17 417 0 418 417 417 0 419 416 0 0 +16 188 891 0 ?420 28
8 416 187 0 0 1 17 420 0 421 420 420 0 422 188 0 0 +15 421 905 0 420 423 424 17
 422 0 425 422 422 0 420 188 0 0 -15 425 914 0 422 426 0 14 426 911 427 ?428 423
 429 4 430 -0 0 428 423 23 81 255 1 427 1519 431 426 432 0 399 433 434 14 428 95
4 433 ?435 426 436 4 437 +0 0 435 426 23 14 423 903 438 ?426 439 421 4 440 +0 0
 426 439 23 15 429 1289 0 383 426 425 51 430 923 0 426 440 441 0 -0 .021 .0075 0
 0 -1 .0027 -1 0 0 13 23 8 0 0 0 0 0 0 8 12 14 12 1318 442 ?367 0 443 4 5 -0 0 3
67 0 23 81 1 442 1522 431 12 444 0 438 445 446 15 443 1290 0 447 12 33 17 447 0
 443 447 447 0 383 381 0 0 -15 33 1317 0 30 12 0 17 383 0 429 383 383 0 447 381
 0 0 +80 255 1 431 448 449 9000 1 1 1 1 1 1 1 1 0 FFFFTFTFFFFFFF1 81 1 444 1394
 450 12 0 442 0 451 452 81 1 438 1521 431 423 453 0 433 442 454 81 1 445 1523 43
1 366 455 0 442 456 457 82 255 1 446 1535246590 14 366 990 445 ?458 362 459 4 46
0 +0 0 458 362 23 81 1 455 1397 450 366 0 445 461 462 463 81 1 456 1524 431 458
 462 0 445 464 465 82 1 457 1369571582 14 458 298 456 ?466 366 467 4 468 -0 0 46
6 366 23 81 1 462 1398 450 458 0 456 455 469 470 81 1 464 1525 431 466 469 0 456
 471 472 82 1 465 1301676283 14 466 292 464 ?473 458 474 4 475 -0 0 473 458 23 8
1 1 469 1399 450 466 0 464 462 476 477 81 1 471 1526 431 473 476 0 464 478 479 8
2 1 472 1300168955 14 473 99 471 ?480 466 481 4 360 +0 0 480 466 23 81 1 476 140
0 450 473 0 471 469 482 483 81 1 478 1527 431 480 482 0 471 484 485 82 1 479 -11
54416438 14 480 40 478 ?369 473 486 4 370 -0 0 369 473 23 81 1 482 1401 450 480
 0 478 476 487 488 81 1 484 1528 431 369 487 0 478 489 490 82 1 485 1471283449 1
4 369 25 484 ?358 480 491 4 363 -0 0 358 480 23 81 1 487 1402 450 369 0 484 482
 492 493 81 1 489 1529 431 358 492 0 484 494 495 82 1 490 1465450695 14 358 122
 489 ?496 369 497 4 17 -0 0 496 369 23 81 1 492 1403 450 358 0 489 487 498 499 8
1 1 494 1530 431 496 498 0 489 500 501 82 1 495 -1156448002 14 496 127 494 ?502
 358 503 4 359 +0 0 502 358 23 81 1 498 1404 450 496 0 494 492 504 505 81 1 500
 1531 431 502 504 0 494 506 507 82 1 501 -1158414134 14 502 237 500 ?178 496 508
 4 509 -0 0 178 496 23 81 1 504 1405 450 502 0 500 498 510 511 81 1 506 1532 431
 178 510 0 500 512 513 82 1 507 1388511483 14 178 447 506 ?158 502 174 4 441 +0
 0 158 502 23 81 1 510 1406 450 178 0 506 504 514 515 81 1 512 1533 431 158 514
 0 506 516 517 82 1 513 1301151993 14 158 455 512 ?518 178 153 4 519 -0 0 518 17
8 23 81 1 514 1407 450 158 0 512 510 520 521 81 1 516 1534 431 518 520 0 512 522
 523 82 1 517 1264255225 14 518 459 516 ?524 158 525 4 526 -0 0 524 158 23 81 1
 520 1408 450 518 0 516 514 527 528 81 1 522 1535 431 524 527 0 516 529 530 82 1
 523 1263599865 14 524 463 522 ?531 518 532 4 533 -0 0 531 518 23 81 1 527 1409
 450 524 0 522 520 534 535 81 1 529 1536 431 531 534 0 522 536 537 82 1 530 1263
730937 14 531 467 529 ?538 524 539 4 540 -0 0 538 524 23 81 1 534 1410 450 531 0
 529 527 541 542 81 1 536 1537 431 538 541 0 529 543 544 82 1 537 1263862009 14
 538 471 536 ?172 531 545 4 546 -0 0 172 531 23 81 1 541 1411 450 538 0 536 534
 547 548 81 1 543 1538 431 172 547 0 536 549 550 82 1 544 1263993081 14 172 475
 543 ?551 538 164 4 552 -0 0 551 538 23 81 1 547 1412 450 172 0 543 541 553 554
 81 1 549 1539 431 551 553 0 543 555 556 82 1 550 1264124153 14 551 637 549 ?557
 172 558 4 559 +0 0 557 172 23 81 1 553 1413 450 551 0 549 547 560 561 81 1 555
 1540 431 557 560 0 549 562 563 82 1 556 1302659321 14 557 645 555 ?564 551 565
 4 566 -0 0 564 551 23 81 1 560 1414 450 557 0 555 553 567 568 81 1 562 1541 431
 564 567 0 555 569 570 82 1 563 1295515897 14 564 649 562 ?571 557 572 4 573 -0
 0 571 557 23 81 1 567 1415 450 564 0 562 560 574 575 81 1 569 1542 431 571 574
 0 562 576 577 82 1 570 1294860537 14 571 653 569 ?578 564 579 4 580 -0 0 578 56
4 23 81 1 574 1416 450 571 0 569 567 581 582 81 1 576 1543 431 578 581 0 569 583
 584 82 1 577 1294991609 14 578 657 576 ?585 571 586 4 587 -0 0 585 571 23 81 1
 581 1417 450 578 0 576 574 588 589 81 1 583 1544 431 585 588 0 576 590 591 82 1
 584 1295122681 14 585 661 583 ?592 578 593 4 594 -0 0 592 578 23 81 1 588 1418
 450 585 0 583 581 595 596 81 1 590 1545 431 592 595 0 583 597 598 82 1 591 1295
253753 14 592 665 590 ?599 585 600 4 601 -0 0 599 585 23 81 1 595 1419 450 592 0
 590 588 602 603 81 1 597 1546 431 599 602 0 590 604 605 82 1 598 1295384825 14
 599 542 597 ?606 592 607 4 608 -0 0 606 592 23 81 1 602 1420 450 599 0 597 595
 609 610 81 1 604 1547 431 606 609 0 597 611 612 82 1 605 1304166649 14 606 550
 604 ?613 599 614 4 615 -0 0 613 599 23 81 1 609 1421 450 606 0 604 602 616 617
 81 1 611 1548 431 613 616 0 604 618 619 82 1 612 1279918329 14 613 554 611 ?620
 606 621 4 622 -0 0 620 606 23 81 1 616 1422 450 613 0 611 609 623 624 81 1 618
 1549 431 620 623 0 611 625 626 82 1 619 1279262969 14 620 558 618 ?627 613 628
 4 629 -0 0 627 613 23 81 1 623 1423 450 620 0 618 616 630 631 81 1 625 1550 431
 627 630 0 618 632 633 82 1 626 1279394041 14 627 562 625 ?634 620 635 4 636 -0
 0 634 620 23 81 1 630 1424 450 627 0 625 623 637 638 81 1 632 1551 431 634 637
 0 625 639 640 82 1 633 1279525113 14 634 566 632 ?439 627 641 4 642 -0 0 439 62
7 23 81 1 637 1425 450 634 0 632 630 643 644 81 1 639 1552 431 439 643 0 632 645
 646 82 1 640 1279656185 14 439 570 639 ?423 634 647 4 648 -0 0 423 634 23 81 1
 643 1426 450 439 0 639 637 453 649 81 1 645 1553 431 400 650 0 639 651 652 82 1
 646 1279787257 14 400 1005 645 ?397 435 405 4 653 +0 0 397 435 23 81 1 650 1431
 450 400 0 645 654 655 656 81 1 651 1554 431 435 654 0 645 0 657 82 1 652 136537
7275 14 435 962 651 ?400 428 658 4 659 -0 0 400 428 23 81 1 654 1430 450 435 0 6
51 660 650 661 82 1 657 1344143612 80 1 450 0 662 8001 0 0 0 0 3 5 0 0 0 FFFFTFT
FFFFFFF2 81 1 660 1429 450 428 0 433 432 654 663 83 255 3 661 .792156862745098 .
819607843137255 .933333333333333 81 1 433 1520 431 428 660 0 427 438 664 81 1 43
2 1428 450 426 0 427 453 660 665 83 3 663 .792156862745098 .819607843137255 .933
333333333333 81 1 453 1427 450 423 0 438 643 432 666 83 3 665 .792156862745098 .
819607843137255 .933333333333333 83 3 666 .792156862745098 .819607843137255 .933
333333333333 82 1 664 1362624763 79 255 15 662 SDL/TYSA_COLOUR15 658 1097 0 345
 435 667 51 659 974 0 435 437 440 0 --.01818653347947325 -.0105 .0075 0 0 -1 .00
27 -1 0 0 50 255 437 976 0 428 401 659 0 +-.01818653347947325 -.0105 .0075 0 0 1
 1 0 0 50 440 925 0 423 659 430 0 +0 .021 .0075 0 0 1 1 0 0 51 401 1025 0 397 65
3 437 0 -.0181865334794732 -.0105 .0075 0 0 -1 .0027 -1 0 0 50 653 1027 0 400 0
 401 0 +.0181865334794732 -.0105 .0075 0 0 1 1 0 0 17 345 0 658 345 345 0 668 33
1 0 0 +15 667 965 0 669 435 0 17 669 0 667 669 669 0 415 410 0 0 -17 415 0 436 4
15 415 0 669 410 0 0 +15 436 956 0 415 428 670 15 670 957 0 671 428 0 17 671 0 6
70 671 671 0 409 406 0 0 -17 409 0 672 409 409 0 671 406 0 0 +15 672 970 0 409 4
58 0 17 668 0 368 668 668 0 345 331 0 0 -15 368 1098 0 668 362 391 81 1 655 1432
 450 397 0 399 650 0 673 83 3 656 .792156862745098 .819607843137255 .93333333333
3333 81 1 399 1518 431 397 655 0 372 427 674 83 3 673 .792156862745098 .81960784
3137255 .933333333333333 81 1 372 1517 431 367 451 0 365 399 675 82 1 674 134820
6845 81 1 451 1395 450 367 0 372 444 461 676 81 1 365 1516 431 362 461 0 0 372 6
77 82 1 675 1478164733 81 1 461 1396 450 362 0 365 451 455 678 82 1 677 14227868
12 83 3 678 .792156862745098 .819607843137255 .933333333333333 83 3 676 .7921568
62745098 .819607843137255 .933333333333333 15 405 1007 0 403 400 679 15 679 1008
 0 680 400 0 17 680 0 679 680 680 0 412 407 0 0 -17 412 0 681 412 412 0 680 407
 0 0 +15 681 1021 0 412 502 0 83 3 649 .792156862745098 .819607843137255 .933333
333333333 15 647 573 0 245 439 0 50 648 690 0 439 642 615 0 +.01645448267190435
 -.0075 .0027 -.866025403784439 .5 0 -.5 -.866025403784439 0 50 642 691 0 634 63
6 648 0 +.0199185842870421 -.0075 .0027 0 1 0 0 0 1 50 615 689 0 606 648 559 0 +
.01472243186433546 -.0105 .0027 -.866025403784438 -.5 0 .5 -.866025403784438 0 5
0 559 688 0 551 615 573 0 +0 0 .0027 0 0 -1 -1 0 0 50 573 686 0 564 559 580 0 +-
.01472243186433546 -.0105 .0027 .866025403784439 -.5 0 .5 .866025403784439 0 50
 580 685 0 571 573 587 0 +-.01645448267190435 -.0075 .0027 .866025403784439 .5 0
 -.5 .866025403784439 0 50 587 684 0 578 580 594 0 +-.0199185842870421 -.0075 .0
027 250385766456193e-30 1 0 -1 250385766456193e-30 0 50 594 683 0 585 587 601 0
 +-.02165063509461095 -.0105 .0027 -.866025403784439 .5 0 -.5 -.866025403784439
 0 50 601 682 0 592 594 566 0 +-.0199185842870421 -.0135 .0027 -.866025403784439
 -.5 0 .5 -.866025403784439 0 50 566 681 0 557 601 475 0 +-.01645448267190435 -.
0135 .0027 -500771532912387e-30 -1 0 1 -500771532912387e-30 0 51 475 260 0 466 5
66 468 0 +0 .021 0 0 0 1 .002 1 0 0 51 468 257 0 458 475 509 0 +-.01818653347947
325 -.0105 0 0 0 1 .002 1 0 0 51 509 254 0 502 468 359 0 +.0181865334794732 -.01
05 0 0 0 1 .002 1 0 0 50 359 139 0 496 509 17 0 +0 0 .003 0 0 1 1 0 0 50 636 692
 0 627 629 642 0 +.02165063509461095 -.0105 .0027 .866025403784439 .5 0 -.5 .866
025403784439 0 50 629 693 0 620 622 636 0 +.0199185842870421 -.0135 .0027 .86602
5403784439 -.5 0 .5 .866025403784439 0 50 622 694 0 613 608 629 0 +.016454482671
90435 -.0135 .0027 0 -1 0 0 0 -1 50 608 696 0 599 519 622 0 +0 0 .0027 0 0 1 1 0
 0 50 519 697 0 158 552 608 0 +-.00173205080756888 .018 .0027 -.866025403784439
 -.5 0 .5 -.866025403784439 0 50 552 698 0 172 546 519 0 +-.00346410161513776 .0
21 .0027 -.866025403784439 .5 0 -.5 -.866025403784439 0 50 546 699 0 538 540 552
 0 +-.00173205080756888 .024 .0027 2003086131649545e-30 1 0 -1 2003086131649545e
-30 0 50 540 700 0 531 533 546 0 +.00173205080756888 .024 .0027 .866025403784438
 .5 0 -.5 .866025403784438 0 50 533 701 0 524 526 540 0 +.00346410161513776 .021
 .0027 .866025403784439 -.5 0 .5 .866025403784439 0 50 526 702 0 518 441 533 0 +
.00173205080756888 .018 .0027 0 -1 0 0 0 -1 50 441 704 0 178 430 526 0 +0 0 .002
7 0 0 -1 -1 0 0 17 245 0 647 120 267 75 682 242 0 683 +17 120 0 647 684 245 118
 104 264 0 685 -17 267 0 647 245 684 49 122 239 0 682 +17 682 0 686 687 683 49 2
45 242 0 0 -17 683 0 686 682 688 75 248 246 0 0 -15 686 335 0 682 480 689 17 688
 0 686 683 690 100 251 249 0 0 -17 248 0 641 117 104 100 683 246 0 688 +15 641 5
69 0 248 634 0 17 117 0 641 685 248 115 102 262 0 691 -17 104 0 641 248 685 75 1
20 264 0 245 +17 685 0 641 104 117 118 229 227 0 226 -17 229 0 607 232 226 115 6
85 227 0 0 +17 226 0 607 229 222 118 684 223 0 0 +15 607 544 0 222 599 692 17 22
2 0 607 226 238 93 693 220 0 0 +17 684 0 647 267 120 93 226 223 0 222 -17 238 0
 607 222 235 105 694 236 0 0 +17 693 0 614 92 122 105 222 220 0 238 -15 614 553
 0 51 606 0 17 92 0 614 51 693 90 107 200 0 256 +17 122 0 614 693 51 93 267 239
 0 684 -17 51 0 614 122 92 49 687 240 0 267 +17 687 0 686 695 682 90 51 240 0 0
 -17 695 0 686 690 687 94 256 224 0 0 -17 690 0 686 688 695 97 254 252 0 0 -17 2
56 0 621 107 96 90 695 224 0 687 +15 621 557 0 256 613 0 17 107 0 621 694 256 10
5 92 200 0 693 -17 96 0 621 256 694 94 111 258 0 254 +17 694 0 621 96 107 109 23
8 236 0 0 -17 111 0 628 696 254 109 96 258 0 235 -17 254 0 628 111 99 94 690 252
 0 695 +15 628 561 0 254 620 0 17 99 0 628 254 696 97 114 260 0 251 +17 696 0 62
8 99 111 112 235 233 0 232 -17 114 0 635 691 251 112 99 260 0 696 -17 251 0 635
 114 102 97 688 249 0 690 +15 635 565 0 251 627 0 17 102 0 635 251 691 100 117 2
62 0 248 +17 691 0 635 102 114 115 232 230 0 229 -17 232 0 607 235 229 112 691 2
30 0 0 +17 235 0 607 238 232 109 696 233 0 694 +15 692 545 0 697 599 0 17 697 0
 692 697 697 0 343 341 0 0 -17 343 0 508 343 343 0 697 341 0 0 +15 508 301 0 343
 502 681 15 689 307 0 698 480 699 17 698 0 689 700 701 52 292 290 0 0 -15 699 17
 0 702 480 703 17 702 0 699 702 702 0 333 327 0 0 -15 703 38 0 326 480 0 17 326
 0 703 326 326 0 704 324 0 0 +17 704 0 481 704 704 0 326 324 0 0 -15 481 59 0 70
4 473 705 15 705 96 0 335 473 0 17 335 0 705 335 335 0 706 318 0 0 +17 706 0 503
 706 706 0 335 318 0 0 -15 503 129 0 706 496 707 15 707 130 0 317 496 0 17 317 0
 707 317 317 0 708 315 0 0 +17 708 0 497 708 708 0 317 315 0 0 -15 497 125 0 708
 358 27 17 333 0 709 333 333 0 702 327 0 0 +15 709 26 0 333 369 0 17 700 0 689 7
10 698 56 54 288 0 0 -17 701 0 689 698 711 69 295 293 0 0 -17 292 0 600 87 314 6
9 698 290 0 701 +15 600 668 0 292 592 0 17 87 0 600 712 292 85 71 311 0 713 -17
 314 0 600 292 712 52 89 287 0 698 +17 712 0 600 314 87 59 274 271 0 270 -17 89
 0 565 714 54 59 314 287 0 712 -15 565 648 0 54 557 0 17 714 0 565 58 89 72 270
 268 0 286 -17 54 0 565 89 58 52 700 288 0 314 +17 58 0 565 54 714 56 74 243 0 3
03 +17 74 0 572 715 303 72 58 243 0 714 -17 303 0 572 74 62 56 710 272 0 700 +15
 572 652 0 303 564 0 17 62 0 572 303 715 60 78 305 0 301 +17 710 0 689 716 700 6
0 303 272 0 0 -17 716 0 689 711 710 63 301 299 0 0 -17 711 0 689 701 716 66 298
 296 0 0 -17 301 0 579 78 65 60 716 299 0 710 +15 579 656 0 301 571 0 17 78 0 57
9 717 301 76 62 305 0 283 -17 65 0 579 301 717 63 81 307 0 298 +17 717 0 579 65
 78 79 283 281 0 280 -17 81 0 586 718 298 79 65 307 0 717 -17 298 0 586 81 68 63
 711 296 0 716 +15 586 660 0 298 578 0 17 68 0 586 298 718 66 84 309 0 295 +17 7
18 0 586 68 81 82 280 278 0 277 -17 84 0 593 713 295 82 68 309 0 718 -17 295 0 5
93 84 71 66 701 293 0 711 +15 593 664 0 295 585 0 17 71 0 593 295 713 69 87 311
 0 292 +17 713 0 593 71 84 85 277 275 0 274 -17 277 0 558 280 274 82 713 275 0 0
 +17 274 0 558 277 270 85 712 271 0 0 +15 558 639 0 270 551 719 17 270 0 558 274
 286 59 714 268 0 0 +17 286 0 558 270 283 72 715 284 0 0 +17 283 0 558 286 280 7
6 717 281 0 715 +17 715 0 572 62 74 76 286 284 0 0 -17 280 0 558 283 277 79 718
 278 0 0 +15 719 640 0 340 551 0 17 340 0 719 340 340 0 720 338 0 0 +17 720 0 46
7 720 720 0 340 338 0 0 -15 467 296 0 720 458 672 83 3 644 .792156862745098 .819
607843137255 .933333333333333 83 3 638 .792156862745098 .819607843137255 .933333
333333333 83 3 631 .792156862745098 .819607843137255 .933333333333333 83 3 624 .
792156862745098 .819607843137255 .933333333333333 83 3 617 .792156862745098 .819
607843137255 .933333333333333 83 3 610 .792156862745098 .819607843137255 .933333
333333333 83 3 603 .792156862745098 .819607843137255 .933333333333333 83 3 596 .
792156862745098 .819607843137255 .933333333333333 83 3 589 .792156862745098 .819
607843137255 .933333333333333 83 3 582 .792156862745098 .819607843137255 .933333
333333333 83 3 575 .792156862745098 .819607843137255 .933333333333333 83 3 568 .
792156862745098 .819607843137255 .933333333333333 83 3 561 .792156862745098 .819
607843137255 .933333333333333 83 3 554 .792156862745098 .819607843137255 .933333
333333333 83 3 548 .792156862745098 .819607843137255 .933333333333333 15 545 474
 0 204 538 0 17 204 0 545 148 137 133 721 202 0 722 +17 148 0 545 173 204 146 13
5 217 0 723 -17 137 0 545 204 173 108 151 167 0 165 +17 721 0 486 166 722 108 20
4 202 0 0 -17 722 0 486 721 724 133 207 205 0 0 -15 486 363 0 166 480 686 17 724
 0 486 722 725 130 208 185 0 0 -17 207 0 539 145 135 130 722 205 0 724 +15 539 4
70 0 207 531 0 17 145 0 539 723 207 143 132 215 0 726 -17 135 0 539 207 723 133
 148 217 0 204 +17 723 0 539 135 145 146 194 192 0 175 -17 194 0 174 180 175 143
 723 192 0 0 +17 175 0 174 194 170 146 173 176 0 0 +17 173 0 545 137 148 149 175
 176 0 170 -17 180 0 174 161 194 140 726 195 0 181 +17 726 0 532 132 142 143 180
 195 0 194 -17 181 0 525 129 139 140 161 168 0 0 -15 525 462 0 184 518 0 17 129
 0 525 184 181 127 142 213 0 208 +17 139 0 525 181 184 55 125 210 0 154 -17 184
 0 525 139 129 123 725 182 0 162 +17 125 0 153 48 154 123 139 210 0 184 +17 725
 0 486 724 162 127 184 182 0 0 -17 162 0 486 725 166 123 48 163 0 0 -17 166 0 48
6 162 721 46 165 199 0 0 -17 165 0 164 151 155 108 166 199 0 721 +17 142 0 532 7
26 208 140 129 213 0 180 -17 208 0 532 142 132 127 724 185 0 725 +15 532 466 0 2
08 524 0 17 132 0 532 208 726 130 145 215 0 207 +83 3 542 .792156862745098 .8196
07843137255 .933333333333333 83 3 535 .792156862745098 .819607843137255 .9333333
33333333 83 3 528 .792156862745098 .819607843137255 .933333333333333 83 3 521 .7
92156862745098 .819607843137255 .933333333333333 83 3 515 .792156862745098 .8196
07843137255 .933333333333333 83 3 511 .792156862745098 .819607843137255 .9333333
33333333 83 3 505 .792156862745098 .819607843137255 .933333333333333 83 3 499 .7
92156862745098 .819607843137255 .933333333333333 83 3 493 .792156862745098 .8196
07843137255 .933333333333333 15 491 24 0 727 369 709 17 727 0 491 727 727 0 330
 328 0 0 -17 330 0 459 330 330 0 727 328 0 0 +15 459 3 0 330 366 384 83 3 488 .7
92156862745098 .819607843137255 .933333333333333 50 370 22 0 480 460 363 0 +0 0
 0 0 0 1 1 0 0 50 460 2 0 366 360 370 0 +0 0 .005 0 0 1 1 0 0 51 360 68 0 473 17
 460 0 -0 0 .005 0 0 -1 .015625 -1 0 0 83 3 483 .792156862745098 .81960784313725
5 .933333333333333 83 3 477 .792156862745098 .819607843137255 .933333333333333 1
5 474 290 0 728 466 418 17 728 0 474 728 728 0 337 212 0 0 -15 418 919 0 417 466
 0 17 337 0 179 337 337 0 728 212 0 0 +15 179 450 0 337 178 0 83 3 470 .79215686
2745098 .819607843137255 .933333333333333 83 3 463 .792156862745098 .81960784313
7255 .933333333333333 82 1 454 1364001019 83 3 452 .792156862745098 .81960784313
7255 .933333333333333 79 14 449 SWEntUnchanged82 1 434 1340014846 15 424 906 0 4
19 423 0 17 419 0 424 419 419 0 417 416 0 0 -141 361 347 729 730 17 141 729 6 73
0 361 17 141 730 374 361 729 17 19 13 30 0 1 0 8 4 S0 40 4 18 0 1 4 .00039978536
4077368 .395425410082931 ??.001351881340843972 .01809958333333335 .005 .00035260
5663182407 .01814657458713055 .00511992251025607 -.000660579094479833 .018137974
9492587 .00507459115458589 -.00139756897948994 .01809611286844685 .0050005153036
4916 41 1 19 L?.001351881340843972 .01809958333333335 .005 41 1 20 L?-.001397568
97948994 .01809611286844685 .00500051530364916 204 16 21 4 1.49624346314154 .002
 5.14854989849681 -1.57079632679494 1.55136779527742 .002119922510256075 4.83533
844976518 -2.278041047128995 1.607199909121845 .00207459115458589 4.485553052773
815 -2.12405317479419 1.6478736681722 .00200051530364916 4.26383307660392 -1.525
391825427375 141 15 6 15 15 5 74 4 CI16 index_map_offset0 0 1 dCCZ20 11 2 0 0 65
1 655 0 0 0 0 0 0 0 0 0 0 0 0 0 0 0 0 0 0 1 0 
