**ABCDEFGHIJKLMNOPQRSTUVWXYZabcdefghijklmnopqrstuvwxyz**************************
**PARASOLID !"#$%&'()*+,-./:;<=>?@[\]^_`{|}~0123456789**************************
**PART1;
MC=AMD64;
MC_MODEL=Intel64 Family 6 Model 142 Stepping 9, GenuineIntel;
MC_ID=unknown;
OS=Windows_NT;
OS_RELEASE=unknown;
FRU=Parasolid Version 30.0, build 226,  7-26-2017;
APPL=SOLIDWORKS 2018-2017284;
SITE=;
USER=unknown;
FORMAT=text;
GUISE=transmit;
KEY=Rolete_xt;
FILE=Rolete_xt.x_t;
DATE=Thu Jul 26 15:27:23 2018;
**PART2;
SCH=SCH_3000226_30000;
USFLD_SIZE=0;
**PART3;
**END_OF_HEADER*****************************************************************
T51 : TRANSMIT FILE created by modeller version 300022623 SCH_3000226_30000_1300
6205 0 12 33 CCCCCCI4 mesh1006 0 I8 polyline1008 0 CCCCCCCDI5 owner1040 0 CCCCCC
I13 boundary_mesh1006 0 I17 boundary_polyline1008 0 CCCA16 index_map_offset0 0 1
 dA9 index_map82 0 A17 node_id_index_map82 0 A20 schema_embedding_map82 0 A5 chi
ld12 0 A14 lowest_node_id0 0 1 dZ1 290 2 3 0 0 0 0 0 0 1e3 1e-8 0 4 0 1 0 1 1 5
 6 7 0 0 0 8 9 0 0 0 0 0 0 0 81 255 2 2 93 10 1 0 0 0 0 11 0 70 11 CI9 list_type
0 0 1 uI10 notransmit0 0 1 lCCCDCCDI12 finger_index0 0 1 dI12 finger_block1012 0
 CZ3 0 4 T1 0 0 3 20 1 12 12 13 255 5 29 0 1 0 13 0 0 14 0 50 255 6 58 0 13 15 0
 0 +.0075 0 0 -1 0 0 0 0 1 31 255 7 60 0 9 16 0 0 +.0075 0 0 -1 0 0 0 0 1 .006 1
9 8 CCCCCCCA5 owner12 0 Z8 33 0 1 14 0 17 V0 16 255 9 42 0 ?18 0 19 7 0 0 1 17 2
55 18 0 20 18 18 0 21 9 0 0 +16 19 37 0 ?22 9 0 16 0 0 1 17 22 0 23 22 22 0 24 1
9 0 0 +31 16 59 0 19 0 7 0 +-.0075 0 0 -1 0 0 0 0 1 .006 15 255 23 39 0 22 25 0
 17 24 0 26 24 24 0 22 19 0 0 -15 26 74 0 24 27 20 14 255 27 45 28 ?25 13 26 5 1
5 -0 0 25 13 17 15 20 44 0 18 27 0 81 1 28 288 29 27 30 0 0 31 32 14 25 40 31 ?0
 27 23 5 33 -0 0 0 27 17 14 13 50 34 ?27 0 35 5 6 -0 0 27 0 17 54 255 15 57 0 27
 33 6 0 -0 0 0 -1 0 0 -.040575 .047175 0 0 1 13 17 32 0 0 0 0 0 0 8 13 50 33 56
 0 25 0 15 0 +-.0075 0 0 1 0 0 0 0 -1 81 1 34 290 29 13 36 0 31 0 37 15 35 75 0
 21 13 0 17 21 0 35 21 21 0 18 9 0 0 -80 255 1 29 38 39 9000 1 1 1 1 1 1 1 1 0 F
FFFTFTFFFFFFF1 81 1 36 277 40 13 0 34 0 30 41 81 1 31 289 29 25 42 0 28 34 43 82
 255 1 37 -327942023 81 1 42 279 40 25 0 31 30 0 44 82 1 43 -329121671 80 1 40 0
 45 8001 0 0 0 0 3 5 0 0 0 FFFFTFTFFFFFFF2 81 1 30 278 40 27 0 28 36 42 46 83 25
5 3 44 0 .223529411764706 0 83 3 46 0 .223529411764706 0 79 255 15 45 SDL/TYSA_C
OLOUR83 3 41 0 .223529411764706 0 79 14 39 SWEntUnchanged82 1 32 -328531847 19 1
4 28 0 1 0 8 5 S0 74 4 CI16 index_map_offset0 0 1 dCCZ20 12 3 0 0 34 2 42 0 0 0
 0 0 0 0 0 0 0 0 0 0 0 0 0 0 80 2 10 47 48 8004 0 0 0 0 3 5 0 0 0 FFTFFFFFFFFFFF
2 3 83 1 11 1 79 16 48 SDL/TYSA_DENSITY1 0 
