**ABCDEFGHIJKLMNOPQRSTUVWXYZabcdefghijklmnopqrstuvwxyz**************************
**PARASOLID !"#$%&'()*+,-./:;<=>?@[\]^_`{|}~0123456789**************************
**PART1;
MC=AMD64;
MC_MODEL=Intel64 Family 6 Model 142 Stepping 9, GenuineIntel;
MC_ID=unknown;
OS=Windows_NT;
OS_RELEASE=unknown;
FRU=Parasolid Version 30.0, build 226,  7-26-2017;
APPL=SOLIDWORKS 2018-2017284;
SITE=;
USER=unknown;
FORMAT=text;
GUISE=transmit;
KEY=Roletes_xt;
FILE=Roletes_xt.x_t;
DATE=Thu Jul 26 15:28:43 2018;
**PART2;
SCH=SCH_3000226_30000;
USFLD_SIZE=0;
**PART3;
**END_OF_HEADER*****************************************************************
T51 : TRANSMIT FILE created by modeller version 300022623 SCH_3000226_30000_1300
6205 0 10 19 CCCCCCCI4 mesh1006 0 I8 polyline1008 0 CCCCCCCCCCZ1 25 2 3 0 0 0 0
 0 0 0 1e3 1e-8 0 0 0 1 0 1 4 81 255 1 2 25 5 1 0 0 0 0 0 70 11 CI9 list_type0 0
 1 uI10 notransmit0 0 1 lCCCDCCDI12 finger_index0 0 1 dI12 finger_block1012 0 CZ
3 0 4 T1 0 0 1 20 1 6 6 11 255 4 23 0 1 7 8 1 9 0 9 0 12 33 CCCCCCI4 mesh1006 0
 I8 polyline1008 0 CCCCCCCDI5 owner1040 0 CCCCCCI13 boundary_mesh1006 0 I17 boun
dary_polyline1008 0 CCCA16 index_map_offset0 0 1 dA9 index_map82 0 A17 node_id_i
ndex_map82 0 A20 schema_embedding_map82 0 A5 child12 0 A14 lowest_node_id0 0 1 d
Z7 441 10 11 0 0 0 0 0 0 1e3 1e-8 4 0 0 1 0 1 1 12 13 14 0 0 0 15 16 0 0 0 0 0 0
 0 100 255 8 24 4 0 0 .965925826289068 .0271769194809645 -.2573882537244195 0 .9
94471846623439 .105003553622568 .258819045102521 -.1014256442961676 .96058604017
0961 .01303999865490242 0 -.0486659375107257 1 3 ?11 9 21 0 1 7 17 1 18 4 18 4 1
00 17 22 9 0 0 -.707106781186547 .600203371417032 .373839421329038 -246519032881
566e-46 .528688779793234 -.848815748040021 -.707106781186548 -.60020337141703 -.
373839421329037 .03562593885582325 -221988296238849e-48 -.03562593885582325 1 3
 ?11 18 19 0 1 7 19 1 20 9 20 9 100 19 20 18 0 0 -.2588190451025205 .69392541105
4887 .671922782605655 0 .695625651906497 -.7184044490464 -.965925826289068 -.185
9367534995915 -.180041166975258 .0486659375107257 0 -.0130399986549024 1 3 ?11 2
0 17 0 1 7 21 1 22 18 22 18 100 21 18 20 0 0 .258819045102521 .3547977931859835
 .898404824031224 4314534465258125e-49 .930097114685039 -.3673137041475115 -.965
925826289068 .0950677821605289 .2407268470753915 .0486659375107257 3885201656890
25e-50 .01303999865490242 1 3 ?11 22 15 0 1 7 23 1 24 20 24 20 100 23 16 22 0 0
 .707106781186548 .690922551271916 .150419507192074 -308148791101958e-46 .212725
3071165085 -.977112042558164 -.707106781186547 .690922551271917 .150419507192074
5 .03562593885582325 -277485370298561e-48 .03562593885582325 1 3 ?11 24 13 0 1 7
 25 1 26 22 26 22 100 25 14 24 0 0 .965925826289068 .0816684593948274 -.24559633
7203664 690253292068385e-45 -.948911379788073 -.3155426964908165 -.2588190451025
205 .3047908398373725 -.916578008596895 .01303999865490242 621567229468777e-47 .
0486659375107257 1 3 ?11 26 11 0 1 7 27 1 28 24 28 24 100 27 12 26 0 0 .96592582
6289068 -.0724526440742398 -.248471150185353 -154074395550979e-47 .9600188042071
29 -.279935520376951 .258819045102521 .270396948827767 .927306956706814 -.013039
99865490242 -1387426851492804e-50 .0486659375107257 1 3 ?11 28 9 0 1 7 29 1 30 2
6 30 26 100 29 10 28 0 0 -.707106781186547 -.661584092940906 -.2496126758951945
 -2958228394578795e-46 -.353005631591223 .935621196887331 -.707106781186548 .661
584092940905 .249612675895194 -.03562593885582325 -2663859554866185e-48 .0356259
3885582325 1 3 ?11 30 7 0 1 7 31 1 32 28 32 28 100 31 8 30 0 0 -.25881904510252
 .3410565933708415 .903710740231904 -308148791101958e-47 .935590203342855 -.3530
877672886395 -.965925826289068 -.0913858387670264 -.24214856303647 -.04866593751
07257 -2774853702985615e-50 .01303999865490242 1 3 ?11 32 5 0 1 7 33 1 34 30 34
 30 100 33 6 32 0 0 .2588190451025205 -.501261262793254 .825681444817026 4237045
87765192e-47 .85480833242565 .518943845532135 -.965925826289068 -.13431255056245
7 .2212406763440845 -.0486659375107257 3815423841605225e-50 -.01303999865490244
 1 3 ?11 34 3 0 1 7 35 1 36 32 36 32 100 35 4 34 0 0 .707106781186548 -.09252307
7603049 -.701027446046772 2924743780496895e-30 -.991402521795118 .13084739117873
34 -.707106781186547 -.0925230776030535 -.701027446046772 -.0356259388558232 693
061756314324e-31 -.03562593885582325 1 3 ?11 36 1 0 1 7 37 1 0 34 0 34 100 37 2
 36 0 0 .965925826289068 .0387559141102628 .2559009129121245 284060969191202e-31
 .988725203011082 -.149741353442175 -.258819045102521 .1446390405532764 .9550352
08691306 -.01303999865490242 255794491166147e-33 -.0486659375107257 1 3 ?81 1 10
 441 5 7 38 0 0 0 39 70 11 0 4 T7 0 0 4 20 1 40 40 13 255 12 29 0 7 0 41 0 0 42
 0 50 255 13 58 0 41 43 0 0 +.0075 0 0 -1 0 0 0 0 1 31 255 14 60 0 16 44 0 0 +.0
075 0 0 -1 0 0 0 0 1 .006 19 8 CCCCCCCA5 owner12 0 Z15 33 0 7 42 0 45 V0 16 255
 16 42 0 ?46 0 47 14 0 0 7 17 255 46 0 48 46 46 0 49 16 0 0 +16 47 37 0 ?50 16 0
 44 0 0 7 17 50 0 51 50 50 0 52 47 0 0 +31 44 59 0 47 0 14 0 +-.0075 0 0 -1 0 0
 0 0 1 .006 15 255 51 39 0 50 53 0 17 52 0 54 52 52 0 50 47 0 0 -15 54 74 0 52 5
5 48 14 255 55 45 56 ?53 41 54 12 43 -0 0 53 41 45 15 48 44 0 46 55 0 81 1 56 43
9 57 55 58 0 59 60 61 14 53 40 60 ?0 55 51 12 62 -0 0 0 55 45 14 41 50 59 ?55 0
 63 12 13 -0 0 55 0 45 54 255 43 57 0 55 62 13 0 -0 0 0 -1 0 0 -.040575 .047175
 0 0 1 13 45 32 0 0 0 0 0 0 15 41 50 62 56 0 53 0 43 0 +-.0075 0 0 1 0 0 0 0 -1
 81 1 59 438 57 41 64 0 0 56 65 15 63 75 0 49 41 0 17 49 0 63 49 49 0 46 16 0 0
 -80 255 1 57 0 66 8001 0 0 0 0 3 5 0 0 0 FFFFTFTFFFFFFF2 81 1 64 436 67 41 0 59
 68 0 69 83 255 3 65 0 .223529411764706 0 80 1 67 70 71 9000 1 1 1 1 1 1 1 1 0 F
FFFTFTFFFFFFF1 81 1 68 434 67 53 0 60 58 64 72 82 255 1 69 -327942023 81 1 60 44
0 57 53 68 0 56 0 73 81 1 58 432 67 55 0 56 0 68 74 82 1 72 -329121671 82 1 74 -
328531847 83 3 73 0 .223529411764706 0 79 255 14 71 SWEntUnchanged79 15 66 SDL/T
YSA_COLOUR83 3 61 0 .223529411764706 0 19 42 28 0 7 0 15 12 S0 74 4 CI16 index_m
ap_offset0 0 1 dCCZ20 40 4 0 0 64 38 60 10 0 0 0 0 0 0 0 0 0 0 0 0 0 0 0 0 81 2
 38 93 75 7 0 10 0 0 76 0 80 2 75 77 78 8004 0 0 0 0 3 5 0 0 0 FFTFFFFFFFFFFF2 3
 83 1 76 1 79 16 78 SDL/TYSA_DENSITY80 1 5 79 80 8017 0 0 0 0 0 0 0 0 0 TTTTTTTT
TTTTTF3 84 255 6 39 Rolete79 13 80 SDL/TYSA_NAME74 20 6 1 0 0 2 0 0 0 0 0 0 0 0
 0 0 0 0 0 0 0 0 0 0 0 1 0 
